<?xml version="1.0" standalone="no"?>
<!DOCTYPE svg PUBLIC "-//W3C//DTD SVG 20010904//EN"
 "http://www.w3.org/TR/2001/REC-SVG-20010904/DTD/svg10.dtd">
<svg version="1.0" xmlns="http://www.w3.org/2000/svg"
 width="653.000000pt" height="786.000000pt" viewBox="0 0 653.000000 786.000000"
 preserveAspectRatio="xMidYMid meet">

<g transform="translate(0.000000,786.000000) scale(0.100000,-0.100000)"
fill="#000000" stroke="none">
<path d="M3099 6706 c-2 -2 -33 -6 -69 -10 -71 -6 -184 -27 -282 -52 -13 -3
-27 -6 -33 -8 -82 -22 -109 -30 -160 -48 -733 -253 -1268 -894 -1400 -1678
-22 -128 -30 -428 -16 -559 41 -374 168 -707 391 -1024 78 -111 474 -517 489
-502 5 6 11 18 13 28 2 13 23 -2 88 -64 289 -275 696 -667 709 -682 8 -9 20
-17 25 -17 5 0 6 167 2 418 -8 449 -6 474 45 575 36 69 138 160 211 188 78 29
80 29 153 32 178 7 339 -103 405 -278 21 -57 23 -84 36 -490 7 -236 13 -432
13 -435 1 -3 183 177 406 400 300 300 405 399 405 383 0 -48 26 -32 152 93
331 329 512 615 624 989 68 224 89 374 87 630 -1 232 -17 358 -73 555 -172
608 -622 1126 -1198 1379 -182 80 -392 141 -577 166 -48 7 -440 17 -446 11z
m341 -40 c103 -7 283 -39 390 -69 402 -112 793 -369 1053 -692 321 -399 477
-834 477 -1329 -1 -329 -69 -622 -215 -921 -110 -227 -221 -379 -431 -595
l-142 -145 -6 175 c-3 96 -8 469 -11 827 l-5 653 207 2 c185 3 208 5 211 20 2
12 -28 32 -125 79 -70 34 -213 103 -318 154 -104 51 -238 116 -297 144 l-108
53 0 254 c0 196 -3 254 -12 255 -57 5 -353 -2 -360 -9 -5 -5 -8 -77 -6 -160 3
-146 2 -152 -16 -146 -11 4 -90 41 -175 84 -86 42 -188 91 -228 109 l-71 33
-109 -54 c-59 -30 -191 -98 -293 -150 -102 -53 -270 -139 -375 -193 -104 -54
-278 -143 -385 -198 -107 -55 -271 -139 -365 -187 -103 -52 -170 -92 -170
-100 0 -13 34 -15 213 -18 l212 -2 0 -278 c0 -152 3 -524 6 -827 l6 -550 -179
180 c-237 237 -364 416 -474 668 -119 270 -171 521 -171 832 0 345 59 612 203
915 173 361 409 632 744 852 83 54 257 145 340 178 106 42 169 63 290 96 6 2
20 5 33 8 13 3 31 7 40 10 9 3 33 8 52 11 19 3 46 7 60 10 14 3 39 7 55 10 17
3 80 8 140 11 61 4 111 7 112 8 3 3 112 -2 203 -8z"/>
</g>
</svg>
