<?xml version="1.0" encoding="utf-8"?>
<svg width="6.3024844cm" height="6.3024844cm" version="1.1" x="0cm" y="0cm" viewBox="0 0 6.3024844 6.3024844" enable-background="new 0 0 6.3024844 6.3024844" xmlns="http://www.w3.org/2000/svg">
  <path d="M 1.003 5.404 L 3.219 5.404 C 4.959 5.404 6.047 3.521 5.177 2.014 C 4.307 0.507 2.131 0.507 1.262 2.014 C 1.055 2.37 0.95 2.777 0.958 3.189 L 1.003 5.404 Z" style="paint-order: stroke markers; stroke: rgb(255, 255, 255);"/>
  <path d="M 2.452 2.392 L 1.431 3.433 L 1.426 3.18 C 1.398 1.8 2.874 0.907 4.083 1.573 C 5.293 2.238 5.329 3.963 4.147 4.679 C 3.867 4.847 3.546 4.937 3.219 4.937 L 2.966 4.937 L 3.986 3.896 L 4.244 4.148 L 3.982 3.39 L 4.283 3.082 L 4.079 2.882 L 3.878 3.086 L 3.721 2.631 L 2.195 2.14 L 2.452 2.392 Z" stroke="rgb(0,0,0)" stroke-width="0.0010cm" stroke-linecap="round" stroke-linejoin="round" style="paint-order: stroke; fill: rgb(89, 201, 171);"/>
  <path d="M 1.972 4.937 L 1.462 4.937 L 1.451 4.427 L 1.956 3.913 C 2.15 3.716 2.484 3.802 2.558 4.067 C 2.591 4.189 2.559 4.32 2.472 4.411 L 1.972 4.937 Z" stroke-linecap="round" stroke-linejoin="round" style="paint-order: stroke; stroke: rgb(89, 201, 169); stroke-width: 0px; fill: rgb(89, 201, 169);"/>
</svg>