<svg aria-hidden="true" width="40" height="40" viewBox="0 0 40 40" fill="none" xmlns="http://www.w3.org/2000/svg"><g fill="currentColor"><path fill-rule="evenodd" clip-rule="evenodd" d="M8.629 4.832c.92-2.044 3.822-2.044 4.742 0l6.525 14.5C20.67 21.054 19.412 23 17.525 23H14v-2h3.525a.6.6 0 0 0 .547-.846L11.547 5.653a.6.6 0 0 0-1.095 0l-6.525 14.5a.6.6 0 0 0 .547.847H10v-7h2v11.126c1.725.444 3 2.01 3 3.874v8H7v-8a4.002 4.002 0 0 1 3-3.874V23H4.474c-1.887 0-3.145-1.947-2.37-3.667L8.628 4.832ZM8.999 29a2 2 0 1 1 4 0v6H9v-6Z"></path>
<path d="M33.3 31.888a4.364 4.364 0 1 1-8.6 0l1.08-6.215c.086-.49-.09-.99-.466-1.319l-2.86-2.503a1.329 1.329 0 0 1-.454-1V19h2v1.546l2.631 2.303a3.427 3.427 0 0 1 1.12 3.167l-1.08 6.215a2.364 2.364 0 1 0 4.658 0l-1.08-6.215a3.428 3.428 0 0 1 1.119-3.167l2.631-2.303V19h2v1.851c0 .383-.165.747-.453 1l-2.861 2.503a1.428 1.428 0 0 0-.467 1.319l1.081 6.215ZM19.645 4H29v2h-6.647l3.385 11h6.466l2.538-11h-1.818l-1.078 5H29.8l1.51-7h5.947l-3.462 15h-9.534L19.645 4Z"></path></g></svg>