<svg xmlns="http://www.w3.org/2000/svg" fill="none"><g clip-path="url(#a)"><path d="M15.73 2.86a2.91 2.91 0 0 0-2.6-2.59 48.42 48.42 0 0 0-10.26 0 2.91 2.91 0 0 0-2.6 2.6 48.42 48.42 0 0 0 0 10.26 2.91 2.91 0 0 0 2.6 2.6c3.4.36 6.85.36 10.26 0a2.91 2.91 0 0 0 2.6-2.6c.36-3.4.36-6.85 0-10.27Zm-2.57 2.2a4.3 4.3 0 0 1-.85.95.36.36 0 0 0-.14.28v.03a6 6 0 0 1-1.53 4 5.64 5.64 0 0 1-4.4 1.93 5.92 5.92 0 0 1-2.97-.8.17.17 0 0 1-.08-.2.16.16 0 0 1 .16-.12h.25c.8 0 1.57-.23 2.23-.68A2.16 2.16 0 0 1 4.12 9a.11.11 0 0 1 .13-.15c.12.03.24.04.36.04h.05a2.16 2.16 0 0 1-1.26-2 .11.11 0 0 1 .17-.09c.15.09.31.15.49.2a2.16 2.16 0 0 1-.35-2.63.11.11 0 0 1 .18-.01 5.65 5.65 0 0 0 3.89 2.07.08.08 0 0 0 .08-.09c-.03-.26 0-.53.05-.78a2.1 2.1 0 0 1 2.1-1.61c.52-.01 1.03.18 1.43.53.05.04.11.07.18.07l.06-.01a4 4 0 0 0 1.06-.43.11.11 0 0 1 .16.13c-.1.34-.3.65-.57.9.24-.06.47-.13.7-.23a.11.11 0 0 1 .13.16Z" fill="#98A3B2"></path></g><defs><clipPath id="a"><path fill="#fff" d="M0 0h16v16H0z"></path></clipPath></defs></svg>