<svg  aria-hidden="true" width="40" height="40" viewBox="0 0 40 40" fill="none" xmlns="http://www.w3.org/2000/svg">
    <path fill-rule="evenodd" clip-rule="evenodd" d="M18 4a6 6 0 0 0-5.598 8.164l.235.608-.46.46L5 20.414V23h2.586L9 21.586V18h3.586l2.18-2.178.461-.46.607.236c.67.26 1.4.402 2.166.402a6 6 0 0 0 5.38-3.34c.397-.802.62-1.705.62-2.66 0-.7-.12-1.373-.341-1.998a7.66 7.66 0 0 0-1.774.172 3 3 0 1 1-1.296-1.72 9.457 9.457 0 0 1 1.928-.404A5.986 5.986 0 0 0 18 4Zm6.996 2.117A7.998 7.998 0 0 0 18 2a7.976 7.976 0 0 0-5.729 2.416A7.974 7.974 0 0 0 10 10c0 .783.113 1.54.323 2.258l-7.03 7.035-.293.293V25h5.414l.293-.293 2-2 .293-.293V20h2.414l.293-.292 2.034-2.032A8 8 0 0 0 25.834 8.37a7.503 7.503 0 0 1 5.163 7.347l-1.872-1.498-.625-.5-.625.5-7.5 6-.375.3v1.616a7.534 7.534 0 0 1-3.09-3.05l-1.47 1.445A9.533 9.533 0 0 0 20 24.334V37h17V20.52l-.375-.3-3.776-3.022c.099-.55.15-1.118.15-1.698 0-4.738-3.467-8.665-8.003-9.383ZM22 24.882V35h13V21.48l-6.5-5.2-6.5 5.2v1.37a7.531 7.531 0 0 0 3.017-.004 3.5 3.5 0 1 1 .778 1.874 9.523 9.523 0 0 1-3.795.162ZM19 8a1 1 0 1 1 0 2 1 1 0 0 1 0-2Zm8 14.5a1.5 1.5 0 1 1 3 0 1.5 1.5 0 0 1-3 0Z" fill="currentColor">
    </path>
</svg>