<svg xmlns="http://www.w3.org/2000/svg" fill="none"><g clip-path="url(#a)"><path d="M15.73 2.86a2.91 2.91 0 0 0-2.6-2.59 48.42 48.42 0 0 0-10.26 0 2.91 2.91 0 0 0-2.6 2.6 48.42 48.42 0 0 0 0 10.26 2.92 2.92 0 0 0 2.6 2.6c3.4.36 6.85.36 10.26 0a2.92 2.92 0 0 0 2.6-2.6c.36-3.4.36-6.85 0-10.27Zm-10.28 9.8a.34.34 0 0 1-.33.34H3.68a.34.34 0 0 1-.34-.34V6.64a.34.34 0 0 1 .34-.34h1.44a.34.34 0 0 1 .33.34v6.02ZM4.4 5.73A1.36 1.36 0 1 1 4.4 3a1.36 1.36 0 0 1 0 2.73Zm8.57 6.96a.31.31 0 0 1-.2.28.31.31 0 0 1-.11.03H11.1a.31.31 0 0 1-.31-.31V9.86c0-.42.12-1.84-1.1-1.84-.95 0-1.15.97-1.18 1.4v3.27a.31.31 0 0 1-.31.31H6.7a.3.3 0 0 1-.3-.31V6.6a.31.31 0 0 1 .3-.31h1.5a.31.31 0 0 1 .31.31v.53c.35-.53.88-.94 2-.94 2.46 0 2.45 2.3 2.45 3.57v2.92Z" fill="#98A3B2"></path></g><defs><clipPath id="a"><path fill="#fff" d="M0 0h16v16H0z"></path></clipPath></defs></svg>