<svg xmlns="http://www.w3.org/2000/svg" fill="none"><g clip-path="url(#a)"><path fill-rule="evenodd" clip-rule="evenodd" d="M14.89 1.11c.47.47.77 1.09.84 1.75.36 3.42.36 6.86 0 10.28a2.91 2.91 0 0 1-2.6 2.59c-3.41.36-6.85.36-10.27 0a2.92 2.92 0 0 1-2.59-2.6 48.42 48.42 0 0 1 0-10.27A2.91 2.91 0 0 1 2.87.27c3.41-.36 6.85-.36 10.27 0 .66.07 1.28.37 1.75.84Zm-5.14 3.1c.39.15.74.37 1.04.65.55.51.86 1.21.88 1.94.02.84-.24 1.67-.74 2.37a2.46 2.46 0 0 1-1.96.96c-.41 0-.83-.16-1.1-.42l-.26 1.02c-.05.18-.53 1.73-1.08 1.6-.47-.14-.19-1.73-.14-1.93L7 7.9c-.04-.1-.14-.39-.14-.75 0-.75.46-1.34 1.04-1.33.46 0 .78.32.78.83 0 .28-.1.63-.23 1.01v.03a111.1 111.1 0 0 1-.2.64.56.56 0 0 0 .05.4.6.6 0 0 0 .57.33c.48 0 .8-.36.97-.66.25-.44.4-1.04.4-1.68 0-1.02-.7-1.65-1.84-1.65a2.21 2.21 0 0 0-1.54.58c-.41.4-.65.95-.65 1.52-.02.3.08.6.28.83.1.1.14.2.1.37l-.1.38c-.05.14-.15.23-.3.23a.3.3 0 0 1-.12-.03C5.39 8.7 5 7.98 5 7.05c0-.62.2-1.21.58-1.72A3.6 3.6 0 0 1 8.51 4c.43 0 .85.07 1.24.22Z" fill="#98A3B2"></path></g><defs><clipPath id="a"><path fill="#fff" d="M0 0h16v16H0z"></path></clipPath></defs></svg>