<svg aria-hidden="true" width="40" height="40" viewBox="0 0 40 40" fill="none" xmlns="http://www.w3.org/2000/svg">
<path fill-rule="evenodd" clip-rule="evenodd" d="M4 4h32v32H4V4Zm2 28.586V26h6.586L6 32.586ZM34 34H7.414L34 7.414V34ZM18 6h14.586l-8 8H18V6ZM6 6h10v8H6V6Zm0 18v-8h4v8H6Zm8.586 0 8-8H12v8h2.586ZM15 32a1 1 0 1 0 0-2 1 1 0 0 0 0 2Zm9-1a1 1 0 1 1-2 0 1 1 0 0 1 2 0Zm7 1a1 1 0 1 0 0-2 1 1 0 0 0 0 2Zm-11-5a1 1 0 1 1-2 0 1 1 0 0 1 2 0Zm7 1a1 1 0 1 0 0-2 1 1 0 0 0 0 2Zm-3-5a1 1 0 1 1-2 0 1 1 0 0 1 2 0Zm7 1a1 1 0 1 0 0-2 1 1 0 0 0 0 2Zm-3-5a1 1 0 1 1-2 0 1 1 0 0 1 2 0Zm3-3a1 1 0 1 0 0-2 1 1 0 0 0 0 2Z" fill="currentColor"></path></svg>