<svg id="Слой_1" data-name="Слой 1" xmlns="http://www.w3.org/2000/svg" viewBox="0 0 137.23 164.67"><defs><style>.cls-1{stroke:#fff;stroke-miterlimit:113.39;stroke-width:9px;}.cls-2{fill:#59c9ab;stroke:#000;stroke-linecap:round;stroke-linejoin:round;stroke-width:0.8px;}.cls-3{fill:#59c9a9;}</style></defs><path class="cls-1" d="M67.61,158.37,113,114.9c35.6-34.13,20.93-94-26.43-107.78S-5.36,36,6.41,83.91a63.78,63.78,0,0,0,16.83,30Z"/><path class="cls-2" d="M38.18,68.31l-.48,41.33-5.06-5.08C5,76.87,17.69,29.64,55.49,19.56S127.87,44,117.73,81.86a51.29,51.29,0,0,1-13.93,23.49l-5.18,5L99.07,69l10.23.09L89.07,58.72l.11-12.21-8.09-.09L81,54.54,68.84,48.31,28,68.19Z"/><path class="cls-3" d="M78.28,129.8l-10.44,10L57.61,129.59l.25-20.43a10.17,10.17,0,0,1,20.33.07Z"/></svg>